<?xml version="1.0" encoding="UTF-8"?>
<svg xmlns="http://www.w3.org/2000/svg" xmlns:xlink="http://www.w3.org/1999/xlink" width="50px" height="50px" viewBox="0 0 50 50" version="1.1">
<path fill="#ebb017" d="M 49.082031 27.207031 C 50.304688 25.988281 50.304688 24.003906 49.082031 22.78125 L 36.582031 10.285156 C 35.359375 9.0625 33.378906 9.0625 32.15625 10.285156 C 30.9375 11.503906 30.9375 13.488281 32.15625 14.707031 L 39.328125 21.875 L 3.125 21.875 C 1.398438 21.875 0 23.273438 0 25 C 0 26.726562 1.398438 28.125 3.125 28.125 L 39.328125 28.125 L 32.15625 35.292969 C 30.9375 36.515625 30.9375 38.496094 32.15625 39.71875 C 33.378906 40.9375 35.359375 40.9375 36.582031 39.71875 L 49.082031 27.21875 Z M 49.082031 27.207031 "/>
</svg>
