<?xml version="1.0" encoding="UTF-8"?>
<svg xmlns="http://www.w3.org/2000/svg" xmlns:xlink="http://www.w3.org/1999/xlink" width="15px" height="20px" viewBox="0 0 15 20" version="1.1">
<path fill="#053634" d="M 8.425781 19.5 C 10.429688 16.992188 15 10.914062 15 7.5 C 15 3.359375 11.640625 0 7.5 0 C 3.359375 0 0 3.359375 0 7.5 C 0 10.914062 4.570312 16.992188 6.574219 19.5 C 7.054688 20.097656 7.945312 20.097656 8.425781 19.5 Z M 7.5 5 C 8.878906 5 10 6.121094 10 7.5 C 10 8.878906 8.878906 10 7.5 10 C 6.121094 10 5 8.878906 5 7.5 C 5 6.121094 6.121094 5 7.5 5 Z M 7.5 5 "/>
</svg>
