<svg width="122" height="50" viewBox="0 0 122 50" fill="none" xmlns="http://www.w3.org/2000/svg">
<path d="M9.725 48.795C8.95233 48.917 8.24067 48.978 7.59 48.978C6.93933 49.0187 5.98367 48.8763 4.723 48.551C4.07233 48.3477 3.60467 48.1037 3.32 47.819C3.076 47.5343 2.649 47.0057 2.039 46.233C1.59167 45.5823 1.26633 44.9723 1.063 44.403C0.900334 43.8743 0.88 43.4473 1.002 43.122C1.124 42.8373 1.38833 42.756 1.795 42.878C1.917 42.9187 2.1 43.0407 2.344 43.244C2.62867 43.488 2.893 43.7727 3.137 44.098C3.70633 44.708 4.39767 45.1147 5.211 45.318C6.02433 45.5213 7.102 45.5417 8.444 45.379C9.01333 45.257 9.70467 45.074 10.518 44.83C11.3313 44.6267 12.1243 44.3623 12.897 44.037C13.6697 43.7117 14.2797 43.3863 14.727 43.061C16.8823 41.597 18.6107 40.438 19.912 39.584C21.2133 38.73 21.864 38.303 21.864 38.303C21.9453 38.1403 22.0877 38.0183 22.291 37.937C22.535 37.815 22.8197 37.693 23.145 37.571C23.389 37.327 23.7753 36.9407 24.304 36.412C24.8733 35.8833 25.402 35.3547 25.89 34.826C26.4187 34.2973 26.744 33.9923 26.866 33.911C26.9473 33.545 27.0287 33.2603 27.11 33.057C27.1913 32.813 27.232 32.569 27.232 32.325C27.5573 31.9997 27.9843 31.3287 28.513 30.312C29.0823 29.2547 29.6517 28.0957 30.221 26.835C30.7903 25.5337 31.197 24.3543 31.441 23.297C32.0103 20.4503 32.1527 18.051 31.868 16.099C31.5833 14.147 30.9937 12.4797 30.099 11.097C29.245 9.67367 28.1673 8.413 26.866 7.315C26.4187 6.949 25.7883 6.56266 24.975 6.156C24.2023 5.70867 23.389 5.32233 22.535 4.997C21.681 4.67166 20.9287 4.40733 20.278 4.204C19.668 4.00066 19.302 3.91933 19.18 3.96C19.0173 4.00066 18.6717 4.65133 18.143 5.912C17.655 7.132 17.0653 8.69767 16.374 10.609C15.6827 12.5203 14.9303 14.5537 14.117 16.709C13.3443 18.8643 12.6123 20.8977 11.921 22.809C11.677 23.5817 11.4127 24.395 11.128 25.249C10.8433 26.103 10.5993 26.8553 10.396 27.506C10.1927 28.116 10.091 28.5227 10.091 28.726C9.64367 29.4173 9.27767 30.3323 8.993 31.471C8.749 32.6097 8.46433 34.5007 8.139 37.144C7.773 38.5267 7.50867 39.584 7.346 40.316C7.18333 41.0073 7.02067 41.3327 6.858 41.292C6.858 41.292 6.83767 41.3123 6.797 41.353C6.797 41.353 6.736 41.414 6.614 41.536C6.614 41.78 6.45133 41.902 6.126 41.902C5.80067 41.902 5.41433 41.8207 4.967 41.658C4.56033 41.4547 4.235 41.231 3.991 40.987C3.869 40.5397 3.78767 40.1127 3.747 39.706C3.747 39.2993 3.90967 38.5063 4.235 37.327C4.43833 36.5543 4.68233 35.619 4.967 34.521C5.29233 33.3823 5.638 32.2233 6.004 31.044C6.37 29.824 6.71567 28.7057 7.041 27.689C7.36633 26.6723 7.61033 25.8997 7.773 25.371C8.05767 24.6797 8.46433 23.3783 8.993 21.467C9.31833 20.4097 9.64367 19.3523 9.969 18.295C10.335 17.2377 10.6807 16.3023 11.006 15.489C11.3313 14.635 11.555 14.086 11.677 13.842C11.8803 13.3133 12.1853 12.4187 12.592 11.158C12.9987 9.89733 13.5273 8.49433 14.178 6.949L14.605 4.936L13.934 4.631C13.446 4.79367 13.0597 4.85467 12.775 4.814C12.531 4.73266 12.3683 4.67167 12.287 4.631C12.043 4.71233 11.6973 4.65133 11.25 4.448C10.8027 4.24467 10.396 3.98033 10.03 3.655C9.70467 3.32966 9.50133 3.045 9.42 2.801C9.33867 2.63833 9.27767 2.435 9.237 2.191C9.237 1.90633 9.237 1.764 9.237 1.764C9.27767 1.52 9.58267 1.29633 10.152 1.093C10.7213 0.848999 11.4533 0.645665 12.348 0.482998C13.2833 0.320331 14.2797 0.218665 15.337 0.177999C16.435 0.096664 17.4923 0.096664 18.509 0.177999C19.5663 0.259331 20.5627 0.482997 21.498 0.848997C22.4333 1.215 23.45 1.60133 24.548 2.008C25.8493 2.496 27.2117 3.35 28.635 4.57C30.099 5.74933 31.4207 7.15233 32.6 8.779C33.82 10.4057 34.6333 12.1137 35.04 13.903C35.162 14.391 35.284 15.0823 35.406 15.977C35.528 16.8717 35.589 17.746 35.589 18.6C35.6297 19.4133 35.5483 19.942 35.345 20.186C35.2637 20.3487 35.2027 20.552 35.162 20.796C35.162 20.9993 35.2433 21.1417 35.406 21.223C35.3653 21.345 35.223 21.8127 34.979 22.626C34.735 23.3987 34.5113 24.0697 34.308 24.639C34.2267 25.6963 33.9827 26.7943 33.576 27.933C33.1693 29.0717 32.722 30.1493 32.234 31.166C31.746 32.142 31.2987 32.9757 30.892 33.667C30.7293 33.667 30.5667 33.7077 30.404 33.789C30.282 33.8297 30.3023 33.8703 30.465 33.911C30.465 34.1143 30.2413 34.5007 29.794 35.07C29.6313 35.192 29.367 35.497 29.001 35.985C28.6757 36.4323 28.4113 36.7373 28.208 36.9C28.1673 37.1847 28.0453 37.4287 27.842 37.632C27.6387 37.7947 27.4557 37.876 27.293 37.876C27.293 37.876 27.2523 37.876 27.171 37.876C27.1303 37.876 27.11 37.9573 27.11 38.12C26.7847 38.608 26.2763 39.1977 25.585 39.889C24.8937 40.5397 24.1007 41.231 23.206 41.963C22.352 42.6543 21.4573 43.305 20.522 43.915C19.6273 44.525 18.7733 44.9927 17.96 45.318C17.5533 45.6027 17.1263 45.8263 16.679 45.989C16.2317 46.1923 15.8047 46.3957 15.398 46.599C15.1947 46.7617 14.7473 46.9853 14.056 47.27C13.3647 47.5953 12.6123 47.9003 11.799 48.185C11.0263 48.4697 10.335 48.673 9.725 48.795ZM75.1394 45.928C75.0987 46.172 74.8547 46.233 74.4074 46.111C74.0007 46.0297 73.6347 45.745 73.3094 45.257C72.9841 44.4843 72.8214 43.7727 72.8214 43.122C72.8214 42.4713 72.8417 41.4953 72.8824 40.194C73.1264 38.7707 73.4517 36.9203 73.8584 34.643C74.3057 32.325 74.8141 29.7427 75.3834 26.896C75.9934 24.0087 76.6441 20.9993 77.3354 17.868C77.8234 16.2413 78.2097 14.757 78.4944 13.415C78.8197 12.0323 79.0637 10.914 79.2264 10.06C79.3891 9.206 79.4704 8.779 79.4704 8.779C79.4704 8.657 79.3484 8.718 79.1044 8.962C78.9011 9.16533 78.6977 9.40933 78.4944 9.694C78.2911 9.97867 78.2097 10.2023 78.2504 10.365C78.2504 10.365 78.1081 10.5683 77.8234 10.975C77.5387 11.3817 77.1727 11.9307 76.7254 12.622C76.3187 13.0287 75.8307 13.842 75.2614 15.062C74.6921 16.282 74.0617 17.4207 73.3704 18.478C72.7197 19.698 72.0284 21.0197 71.2964 22.443C70.5644 23.8257 69.9137 24.9847 69.3444 25.92C68.9784 26.4487 68.6124 27.0587 68.2464 27.75C67.8804 28.4413 67.6567 28.8887 67.5754 29.092C67.4127 29.5393 67.1281 30.0883 66.7214 30.739C66.3147 31.349 65.8674 31.959 65.3794 32.569C65.1354 32.935 64.8914 33.3213 64.6474 33.728C64.4034 34.094 64.2001 34.4193 64.0374 34.704C63.9154 34.948 63.8544 35.07 63.8544 35.07C63.8544 35.192 63.6511 35.558 63.2444 36.168C62.8784 36.778 62.4107 37.449 61.8414 38.181C61.3127 38.913 60.8044 39.5433 60.3164 40.072C58.8931 41.5767 57.7544 42.4713 56.9004 42.756C56.0464 43 55.0907 42.634 54.0334 41.658C53.5047 41.0073 53.1184 40.2753 52.8744 39.462C52.6304 38.608 52.5287 37.571 52.5694 36.351C52.6101 35.0903 52.7524 33.5247 52.9964 31.654C53.2811 30.2307 53.5454 28.8073 53.7894 27.384C54.0334 25.92 54.2571 24.5577 54.4604 23.297C54.7044 21.9957 54.9077 20.8977 55.0704 20.003C55.2737 19.1083 55.4364 18.5187 55.5584 18.234C55.6397 17.4207 55.6194 16.9733 55.4974 16.892C55.3754 16.8107 55.1314 17.0547 54.7654 17.624C54.6027 17.9087 54.1757 18.6203 53.4844 19.759C52.7931 20.857 51.9797 22.2193 51.0444 23.846C50.1497 25.4727 49.2551 27.2417 48.3604 29.153C46.6931 32.2437 45.3104 34.8057 44.2124 36.839C43.1551 38.8317 42.3011 40.4177 41.6504 41.597C41.0404 42.7763 40.5931 43.6507 40.3084 44.22C40.0237 44.7893 39.8204 45.1757 39.6984 45.379C39.5764 45.5823 39.4747 45.7247 39.3934 45.806C39.0274 45.806 38.6411 45.6433 38.2344 45.318C37.8684 45.0333 37.4821 44.6877 37.0754 44.281C36.9534 43.9963 36.8924 43.7117 36.8924 43.427C36.9331 43.1423 37.0754 42.7357 37.3194 42.207C37.5634 41.6377 37.9294 40.7837 38.4174 39.645C38.9461 38.5877 39.4341 37.6727 39.8814 36.9C40.3287 36.0867 40.6744 35.5987 40.9184 35.436C41.1217 35.1107 41.3047 34.7853 41.4674 34.46C41.6301 34.1347 41.7317 33.7483 41.7724 33.301C41.9757 33.057 42.2807 32.569 42.6874 31.837C43.1347 31.0643 43.5821 30.2307 44.0294 29.336C44.3547 28.8073 44.7614 28.116 45.2494 27.262C45.7781 26.408 46.3271 25.4727 46.8964 24.456C47.4657 23.3987 47.9741 22.4023 48.4214 21.467C50.2921 18.2543 51.8781 15.55 53.1794 13.354C54.4807 11.1173 55.4567 9.694 56.1074 9.084C56.3107 8.88066 56.5141 8.596 56.7174 8.23C56.9614 7.864 57.0834 7.53866 57.0834 7.254C57.0834 6.4 57.2461 5.62733 57.5714 4.936C57.9374 4.204 58.3034 3.87866 58.6694 3.96C59.0761 3.96 59.4421 4.00066 59.7674 4.082C60.0927 4.16333 60.4384 4.42767 60.8044 4.875C61.1297 5.363 61.4144 5.851 61.6584 6.339C61.9024 6.827 61.8821 7.803 61.5974 9.267C61.5974 9.83633 61.5364 10.487 61.4144 11.219C61.2924 11.9103 61.1704 12.561 61.0484 13.171C60.9671 13.7403 60.9061 14.1877 60.8654 14.513C60.3367 16.099 59.8487 17.8883 59.4014 19.881C58.9541 21.833 58.5474 23.8257 58.1814 25.859C57.8154 27.8517 57.5104 29.7223 57.2664 31.471C57.0224 33.179 56.8597 34.6023 56.7784 35.741C56.7377 36.839 56.7784 37.4693 56.9004 37.632C57.1851 37.7947 57.4291 37.815 57.6324 37.693C57.8357 37.571 58.1814 37.0423 58.6694 36.107C58.9541 35.619 59.3404 35.0293 59.8284 34.338C60.3571 33.606 60.8654 32.935 61.3534 32.325C61.6787 31.7557 62.1871 30.9017 62.8784 29.763C63.5697 28.6243 64.4441 27.1603 65.5014 25.371C66.5994 23.5817 67.9007 21.406 69.4054 18.844C70.9507 16.2413 72.6994 13.232 74.6514 9.816C75.5867 8.39266 76.4611 7.01 77.2744 5.668C78.1284 4.28533 78.8197 3.39067 79.3484 2.984C79.9177 2.45533 80.5074 2.33333 81.1174 2.618C81.7274 2.862 82.2561 3.39067 82.7034 4.204C83.1914 5.01733 83.4557 6.034 83.4964 7.254C83.5371 7.82333 83.4557 8.73833 83.2524 9.999C83.0897 11.2597 82.8254 12.7033 82.4594 14.33C82.0934 15.916 81.6257 17.563 81.0564 19.271C80.9344 19.9623 80.7311 20.8367 80.4464 21.894C80.2024 22.9107 79.9177 23.968 79.5924 25.066C79.2671 26.164 78.9417 27.201 78.6164 28.177C78.4131 29.519 78.1691 30.8407 77.8844 32.142C77.6404 33.4433 77.5591 34.3177 77.6404 34.765C77.2744 35.4157 77.0304 36.351 76.9084 37.571C76.7864 38.791 76.7254 40.0517 76.7254 41.353C76.5627 42.939 76.4407 44.0573 76.3594 44.708C76.2781 45.3587 76.1357 45.6637 75.9324 45.623C75.4037 45.4603 75.1394 45.562 75.1394 45.928ZM95.9995 48.795C95.2268 48.917 94.5152 48.978 93.8645 48.978C93.2138 49.0187 92.2582 48.8763 90.9975 48.551C90.3468 48.3477 89.8792 48.1037 89.5945 47.819C89.3505 47.5343 88.9235 47.0057 88.3135 46.233C87.8662 45.5823 87.5408 44.9723 87.3375 44.403C87.1748 43.8743 87.1545 43.4473 87.2765 43.122C87.3985 42.8373 87.6628 42.756 88.0695 42.878C88.1915 42.9187 88.3745 43.0407 88.6185 43.244C88.9032 43.488 89.1675 43.7727 89.4115 44.098C89.9808 44.708 90.6722 45.1147 91.4855 45.318C92.2988 45.5213 93.3765 45.5417 94.7185 45.379C95.2878 45.257 95.9792 45.074 96.7925 44.83C97.6058 44.6267 98.3988 44.3623 99.1715 44.037C99.9442 43.7117 100.554 43.3863 101.001 43.061C103.157 41.597 104.885 40.438 106.186 39.584C107.488 38.73 108.138 38.303 108.138 38.303C108.22 38.1403 108.362 38.0183 108.565 37.937C108.809 37.815 109.094 37.693 109.419 37.571C109.663 37.327 110.05 36.9407 110.578 36.412C111.148 35.8833 111.676 35.3547 112.164 34.826C112.693 34.2973 113.018 33.9923 113.14 33.911C113.222 33.545 113.303 33.2603 113.384 33.057C113.466 32.813 113.506 32.569 113.506 32.325C113.832 31.9997 114.259 31.3287 114.787 30.312C115.357 29.2547 115.926 28.0957 116.495 26.835C117.065 25.5337 117.471 24.3543 117.715 23.297C118.285 20.4503 118.427 18.051 118.142 16.099C117.858 14.147 117.268 12.4797 116.373 11.097C115.519 9.67367 114.442 8.413 113.14 7.315C112.693 6.949 112.063 6.56266 111.249 6.156C110.477 5.70867 109.663 5.32233 108.809 4.997C107.955 4.67166 107.203 4.40733 106.552 4.204C105.942 4.00066 105.576 3.91933 105.454 3.96C105.292 4.00066 104.946 4.65133 104.417 5.912C103.929 7.132 103.34 8.69767 102.648 10.609C101.957 12.5203 101.205 14.5537 100.391 16.709C99.6188 18.8643 98.8868 20.8977 98.1955 22.809C97.9515 23.5817 97.6872 24.395 97.4025 25.249C97.1178 26.103 96.8738 26.8553 96.6705 27.506C96.4672 28.116 96.3655 28.5227 96.3655 28.726C95.9182 29.4173 95.5522 30.3323 95.2675 31.471C95.0235 32.6097 94.7388 34.5007 94.4135 37.144C94.0475 38.5267 93.7832 39.584 93.6205 40.316C93.4578 41.0073 93.2952 41.3327 93.1325 41.292C93.1325 41.292 93.1122 41.3123 93.0715 41.353C93.0715 41.353 93.0105 41.414 92.8885 41.536C92.8885 41.78 92.7258 41.902 92.4005 41.902C92.0752 41.902 91.6888 41.8207 91.2415 41.658C90.8348 41.4547 90.5095 41.231 90.2655 40.987C90.1435 40.5397 90.0622 40.1127 90.0215 39.706C90.0215 39.2993 90.1842 38.5063 90.5095 37.327C90.7128 36.5543 90.9568 35.619 91.2415 34.521C91.5668 33.3823 91.9125 32.2233 92.2785 31.044C92.6445 29.824 92.9902 28.7057 93.3155 27.689C93.6408 26.6723 93.8848 25.8997 94.0475 25.371C94.3322 24.6797 94.7388 23.3783 95.2675 21.467C95.5928 20.4097 95.9182 19.3523 96.2435 18.295C96.6095 17.2377 96.9552 16.3023 97.2805 15.489C97.6058 14.635 97.8295 14.086 97.9515 13.842C98.1548 13.3133 98.4598 12.4187 98.8665 11.158C99.2732 9.89733 99.8018 8.49433 100.452 6.949L100.879 4.936L100.208 4.631C99.7205 4.79367 99.3342 4.85467 99.0495 4.814C98.8055 4.73266 98.6428 4.67167 98.5615 4.631C98.3175 4.71233 97.9718 4.65133 97.5245 4.448C97.0772 4.24467 96.6705 3.98033 96.3045 3.655C95.9792 3.32966 95.7758 3.045 95.6945 2.801C95.6132 2.63833 95.5522 2.435 95.5115 2.191C95.5115 1.90633 95.5115 1.764 95.5115 1.764C95.5522 1.52 95.8572 1.29633 96.4265 1.093C96.9958 0.848999 97.7278 0.645665 98.6225 0.482998C99.5578 0.320331 100.554 0.218665 101.611 0.177999C102.709 0.096664 103.767 0.096664 104.783 0.177999C105.841 0.259331 106.837 0.482997 107.772 0.848997C108.708 1.215 109.724 1.60133 110.822 2.008C112.124 2.496 113.486 3.35 114.909 4.57C116.373 5.74933 117.695 7.15233 118.874 8.779C120.094 10.4057 120.908 12.1137 121.314 13.903C121.436 14.391 121.558 15.0823 121.68 15.977C121.802 16.8717 121.863 17.746 121.863 18.6C121.904 19.4133 121.823 19.942 121.619 20.186C121.538 20.3487 121.477 20.552 121.436 20.796C121.436 20.9993 121.518 21.1417 121.68 21.223C121.64 21.345 121.497 21.8127 121.253 22.626C121.009 23.3987 120.786 24.0697 120.582 24.639C120.501 25.6963 120.257 26.7943 119.85 27.933C119.444 29.0717 118.996 30.1493 118.508 31.166C118.02 32.142 117.573 32.9757 117.166 33.667C117.004 33.667 116.841 33.7077 116.678 33.789C116.556 33.8297 116.577 33.8703 116.739 33.911C116.739 34.1143 116.516 34.5007 116.068 35.07C115.906 35.192 115.641 35.497 115.275 35.985C114.95 36.4323 114.686 36.7373 114.482 36.9C114.442 37.1847 114.32 37.4287 114.116 37.632C113.913 37.7947 113.73 37.876 113.567 37.876C113.567 37.876 113.527 37.876 113.445 37.876C113.405 37.876 113.384 37.9573 113.384 38.12C113.059 38.608 112.551 39.1977 111.859 39.889C111.168 40.5397 110.375 41.231 109.48 41.963C108.626 42.6543 107.732 43.305 106.796 43.915C105.902 44.525 105.048 44.9927 104.234 45.318C103.828 45.6027 103.401 45.8263 102.953 45.989C102.506 46.1923 102.079 46.3957 101.672 46.599C101.469 46.7617 101.022 46.9853 100.33 47.27C99.6392 47.5953 98.8868 47.9003 98.0735 48.185C97.3008 48.4697 96.6095 48.673 95.9995 48.795Z" fill="#053634"/>
<path d="M36.3286 39.828C35.556 40.1127 34.9053 40.255 34.3766 40.255C33.8886 40.2143 33.3396 39.9703 32.7296 39.523C31.957 38.791 31.6926 38.059 31.9366 37.327C32.2213 36.5543 32.8923 35.802 33.9496 35.07C34.6816 34.6227 35.2103 34.3787 35.5356 34.338C35.9016 34.2973 36.4506 34.4397 37.1826 34.765C38.4026 35.5377 38.9313 36.3917 38.7686 37.327C38.6466 38.2623 37.8333 39.096 36.3286 39.828ZM83.7847 39.828C83.0121 40.1127 82.3614 40.255 81.8327 40.255C81.3447 40.2143 80.7957 39.9703 80.1857 39.523C79.4131 38.791 79.1487 38.059 79.3927 37.327C79.6774 36.5543 80.3484 35.802 81.4057 35.07C82.1377 34.6227 82.6664 34.3787 82.9917 34.338C83.3577 34.2973 83.9067 34.4397 84.6387 34.765C85.8587 35.5377 86.3874 36.3917 86.2247 37.327C86.1027 38.2623 85.2894 39.096 83.7847 39.828Z" fill="#EBB017"/>
</svg>
